<svg color="#3182ce" height="100%" width="100%" xmlns="http://www.w3.org/2000/svg" viewBox="2 3.12 28 25.76">
  <path d="M26.84 17.87v10.66c0 .19-.16.35-.35.35h-7.21c-.19 0-.35-.16-.35-.35v-6.81c0-.78-.63-1.41-1.41-1.41h-3.04c-.78 0-1.41.63-1.41 1.41v6.81c0 .19-.16.35-.35.35H5.51c-.19 0-.35-.16-.35-.35V17.87c0-.1.04-.2.12-.26l10.26-9.06c.27-.23.67-.23.93 0l10.26 9.06c.07.07.11.16.11.26zm2.71-3.78L17.86 3.82a2.815 2.815 0 00-3.71 0L2.45 14.09c-.58.51-.6 1.39-.06 1.94.5.5 1.29.52 1.82.06l10.86-9.57c.53-.47 1.33-.47 1.86 0l10.86 9.57a1.33 1.33 0 001.76-2z"/>
</svg>
